<svg width="81" height="81" viewBox="0 0 81 81" fill="none" xmlns="http://www.w3.org/2000/svg">
  <!-- 背景圆形 -->
  <circle cx="40.5" cy="40.5" r="40.5" fill="#165DFF"/>

  <!-- 中心人形图标 -->
  <g transform="translate(40.5, 28)">
    <!-- 头部 -->
    <circle cx="0" cy="0" r="5" fill="white"/>
    <!-- 身体 -->
    <path d="M -6 8 Q -6 5 -4 5 L 4 5 Q 6 5 6 8 L 6 16 Q 6 18 4 18 L -4 18 Q -6 18 -6 16 Z" fill="white"/>
  </g>

  <!-- 左侧人形 -->
  <g transform="translate(22, 38)">
    <circle cx="0" cy="0" r="4" fill="white" opacity="0.7"/>
    <path d="M -5 6 Q -5 4 -3 4 L 3 4 Q 5 4 5 6 L 5 12 Q 5 14 3 14 L -3 14 Q -5 14 -5 12 Z" fill="white" opacity="0.7"/>
  </g>

  <!-- 右侧人形 -->
  <g transform="translate(59, 38)">
    <circle cx="0" cy="0" r="4" fill="white" opacity="0.7"/>
    <path d="M -5 6 Q -5 4 -3 4 L 3 4 Q 5 4 5 6 L 5 12 Q 5 14 3 14 L -3 14 Q -5 14 -5 12 Z" fill="white" opacity="0.7"/>
  </g>

  <!-- 连接线 - 组织结构 -->
  <line x1="40.5" y1="44" x2="22" y2="44" stroke="white" stroke-width="2" opacity="0.5"/>
  <line x1="40.5" y1="44" x2="59" y2="44" stroke="white" stroke-width="2" opacity="0.5"/>

  <!-- 底部装饰线 -->
  <path d="M 20 60 Q 40.5 65 61 60" stroke="white" stroke-width="2" fill="none" opacity="0.3"/>
</svg>
